<?xml version="1.0" encoding="UTF-8"?>
<svg version="1.1" xmlns="http://www.w3.org/2000/svg" width="1080" height="1080">
<path d="M0 0 C356.4 0 712.8 0 1080 0 C1080 356.4 1080 712.8 1080 1080 C723.6 1080 367.2 1080 0 1080 C0 723.6 0 367.2 0 0 Z " fill="#FEFEFE" transform="translate(0,0)"/>
<path d="M0 0 C10.56 0 21.12 0 32 0 C31.38751929 5.51232636 30.86833624 10.14334331 29.546875 15.37890625 C29.25949463 16.53583984 28.97211426 17.69277344 28.67602539 18.88476562 C28.37043701 20.09841797 28.06484863 21.31207031 27.75 22.5625 C27.11596112 25.14655703 26.48374571 27.73095297 25.85546875 30.31640625 C25.69819809 30.96300201 25.54092743 31.60959778 25.37889099 32.27578735 C19.09108015 53.40203 19.09108015 53.40203 19 75 C20.88302456 77.23344427 22.38980576 78.69490288 25 80 C30.48857095 80.36590473 34.43507005 80.42369746 39 77 C47.12810075 65.06362827 48.42984524 45.72324341 51.4765625 31.8984375 C52.90293773 25.42796336 54.34931923 18.96224639 55.8125 12.5 C56.01931396 11.5807373 56.22612793 10.66147461 56.43920898 9.71435547 C56.63071533 8.87018066 56.82222168 8.02600586 57.01953125 7.15625 C57.26860229 6.05506836 57.26860229 6.05506836 57.52270508 4.93164062 C57.93434903 3.26569335 58.45733702 1.62798893 59 0 C103.22 0 147.44 0 193 0 C192.38524343 5.53280916 191.80144836 10.44894021 190.58984375 15.78515625 C190.3487085 16.85902588 190.10757324 17.93289551 189.85913086 19.03930664 C189.55499268 20.36696045 189.25085449 21.69461426 188.9375 23.0625 C187.968125 27.331875 186.99875 31.60125 186 36 C196.23 36 206.46 36 217 36 C217.33 33.36 217.66 30.72 218 28 C218.27313374 26.53883104 218.56821332 25.08125084 218.90234375 23.6328125 C219.07056641 22.89160156 219.23878906 22.15039062 219.41210938 21.38671875 C219.58548828 20.64035156 219.75886719 19.89398437 219.9375 19.125 C221.39691349 12.76573056 222.71959229 6.40203856 224 0 C234.56 0 245.12 0 256 0 C254.87578108 10.1179703 254.87578108 10.1179703 253.98657227 13.87182617 C253.69217506 15.1367968 253.69217506 15.1367968 253.39183044 16.42732239 C253.18131546 17.31111069 252.97080048 18.19489899 252.75390625 19.10546875 C252.29993016 21.0562422 251.84700196 23.00725976 251.39501953 24.95849609 C251.16325012 25.95604919 250.93148071 26.95360229 250.69268799 27.98138428 C249.57552742 32.84977888 248.5185632 37.73082675 247.46484375 42.61328125 C247.25654938 43.5758786 247.048255 44.53847595 246.83364868 45.53024292 C245.98731432 49.4440442 245.14313335 53.35830773 244.29956055 57.27270508 C241.07243218 72.23664348 237.71306867 87.14772534 234 102 C223.44 102 212.88 102 202 102 C202.64329215 95.5670785 203.21105386 90.43625034 204.8125 84.375 C205.1681921 83.00787059 205.52365335 81.6406811 205.87890625 80.2734375 C206.06211426 79.57831055 206.24532227 78.88318359 206.43408203 78.16699219 C207.40412567 74.45253689 208.32381281 70.7255793 209.25 67 C209.8275 64.69 210.405 62.38 211 60 C200.44 60 189.88 60 179 60 C178.67 62.97 178.34 65.94 178 69 C177.66498377 70.77596414 177.29740776 72.5465234 176.87890625 74.3046875 C176.66556641 75.21863281 176.45222656 76.13257813 176.23242188 77.07421875 C175.90081055 78.46060547 175.90081055 78.46060547 175.5625 79.875 C175.12383601 81.7259798 174.68763577 83.57754522 174.25390625 85.4296875 C173.96495483 86.63987549 173.96495483 86.63987549 173.67016602 87.87451172 C172.66552747 92.55989701 171.85719793 97.2854114 171 102 C160.11 102 149.22 102 138 102 C139.85294994 93.62466629 141.71325472 85.25151041 143.61328125 76.88671875 C144.20063869 74.29950583 144.78790185 71.71227174 145.375 69.125 C145.59801285 68.1427948 145.59801285 68.1427948 145.82553101 67.14074707 C148.35999682 55.96646863 150.78858233 44.77271889 153.13427734 33.55712891 C153.3658252 32.45933105 153.59737305 31.3615332 153.8359375 30.23046875 C154.03751465 29.26520264 154.2390918 28.29993652 154.44677734 27.30541992 C155 25 155 25 156 23 C150.06 23 144.12 23 138 23 C137.67 25.64 137.34 28.28 137 31 C136.71651597 32.5119117 136.40928326 34.01985696 136.0637207 35.51879883 C135.88276352 36.31282608 135.70180634 37.10685333 135.5153656 37.92494202 C135.32080276 38.76053146 135.12623993 39.59612091 134.92578125 40.45703125 C134.61889122 41.79724586 134.61889122 41.79724586 134.30580139 43.16453552 C133.64485904 46.04800482 132.97865598 48.93023122 132.3125 51.8125 C131.63014308 54.78461689 130.94920895 57.7570574 130.26837158 60.72952271 C129.81694742 62.70006207 129.3650856 64.67050122 128.91278076 66.64083862 C126.21176669 78.4133776 123.60566049 90.20595777 121 102 C110.11 102 99.22 102 88 102 C88.515625 99.69 89.03125 97.38 89.5625 95 C90.92266643 88.90433132 92.2609191 82.80432596 93.578125 76.69921875 C97.4606679 58.73190213 101.60449073 40.8492413 106 23 C99.07 23 92.14 23 85 23 C84.67 25.97 84.34 28.94 84 32 C83.59848922 34.28476483 83.1651247 36.5642338 82.6953125 38.8359375 C82.44136719 40.06570313 82.18742187 41.29546875 81.92578125 42.5625 C81.66152344 43.820625 81.39726562 45.07875 81.125 46.375 C80.86847656 47.62539063 80.61195313 48.87578125 80.34765625 50.1640625 C72.64914967 87.14784284 72.64914967 87.14784284 58.36328125 97.49609375 C48.18206344 103.97505054 38.54580402 104.21581308 26.75 104.3125 C25.58597656 104.34150391 24.42195313 104.37050781 23.22265625 104.40039062 C10.88845497 104.49016925 1.41545488 101.12503237 -7.49609375 92.5625 C-14.08082038 85.37205668 -14.90560491 76.43516281 -14.61328125 67.1015625 C-13.77208642 55.71932629 -10.41860168 44.52620039 -7.62220764 33.49645996 C-5.76599017 26.15417289 -4.11809294 18.77318309 -2.5 11.375 C-1.675 7.62125 -0.85 3.8675 0 0 Z " fill="#020202" transform="translate(197,594)"/>
<path d="M0 0 C12.21 0 24.42 0 37 0 C38.62663505 15.30819556 38.62663505 15.30819556 39.34179688 22.04492188 C39.82196043 26.56797628 40.30219287 31.09102327 40.78295898 35.61401367 C41.63270923 43.60920977 42.48018029 51.60463892 43.32328987 59.60053825 C43.7713542 63.84671086 44.22354964 68.09241756 44.67905521 72.33779812 C44.89570204 74.36164104 45.11069712 76.38565158 45.32499695 78.40974426 C45.58749577 80.88830488 45.85263328 83.36658804 46.1209259 85.8445282 C46.29539497 87.50377068 46.29539497 87.50377068 46.47338867 89.1965332 C46.62670906 90.63159966 46.62670906 90.63159966 46.78312683 92.09565735 C47.02902712 95.3887281 47 98.69776107 47 102 C36.11 102 25.22 102 14 102 C14 97.05 14 92.1 14 87 C9.86329522 86.81991957 5.75942089 86.6850815 1.62207031 86.65820312 C0.22105594 86.63628205 -1.17981625 86.58955632 -2.57910156 86.51660156 C-3.25682617 86.48276367 -3.93455078 86.44892578 -4.6328125 86.4140625 C-5.2304541 86.37700195 -5.8280957 86.33994141 -6.44384766 86.30175781 C-9.67498025 86.4657747 -12.83761007 87.31705835 -16 88 C-18.64 92.62 -21.28 97.24 -24 102 C-36.21 102 -48.42 102 -61 102 C-54.25170068 89.62811791 -54.25170068 89.62811791 -51.29296875 84.78515625 C-50.63296875 83.70169922 -49.97296875 82.61824219 -49.29296875 81.50195312 C-48.59116657 80.35545606 -47.88934307 79.20897204 -47.1875 78.0625 C-46.43983282 76.83675401 -45.69244322 75.61083867 -44.9453125 74.38476562 C-43.39868827 71.84716765 -41.85089371 69.31028939 -40.30224609 66.77392578 C-37.04113481 61.43084563 -33.79466845 56.0788854 -30.54785156 50.72711182 C-28.79932405 47.84511723 -27.05011212 44.96353826 -25.30078125 42.08203125 C-24.95278473 41.50878113 -24.60478821 40.93553101 -24.24624634 40.34490967 C-21.99241574 36.63280174 -19.73649473 32.92197086 -17.4793396 29.21188354 C-15.92276742 26.65317919 -14.36687588 24.09406128 -12.81103516 21.53491211 C-12.07227959 20.32018735 -11.33319405 19.1056632 -10.59375 17.89135742 C-9.56555858 16.20282707 -8.53861699 14.51353587 -7.51171875 12.82421875 C-6.92865967 11.86604248 -6.34560059 10.90786621 -5.74487305 9.9206543 C-3.78502966 6.64017207 -1.89590975 3.31784207 0 0 Z " fill="#010101" transform="translate(137,594)"/>
<path d="M0 0 C0.33 0 0.66 0 1 0 C1 11.22 1 22.44 1 34 C-4.94 34 -10.88 34 -17 34 C-11.64526085 22.48483178 -6.10852979 11.13516739 0 0 Z " fill="#F3F3F3" transform="translate(149,625)"/>
</svg>
